<svg xmlns="http://www.w3.org/2000/svg" version="1.1" viewBox="-5.0 -10.0 110.0 115.0">
 <path d="m22.789 43.324 17.258 2.4648c2.2852 4.1289 3.3281 8.7773 2.9883 13.496l-1.5859 22.152c-0.35547 4.957 3.582 9.1875 8.5508 9.1875 4.9727 0 8.9062-4.2266 8.5508-9.1875l-1.5859-22.152c-0.33984-4.7188 0.70312-9.3672 2.9883-13.496l17.258-2.4648c2.0586-0.29297 3.6094-2.082 3.6094-4.1602v-21.758c0-2.0781-1.5508-3.8672-3.6094-4.1602l-27.012-3.8594c-0.13281-0.019531-0.26562-0.019531-0.39453 0l-27.012 3.8594c-2.0586 0.29297-3.6094 2.082-3.6094 4.1602v21.758c0 2.0781 1.5508 3.8672 3.6094 4.1602zm31.379 16.164 1.5859 22.152c0.23828 3.3242-2.3828 6.1836-5.7578 6.1836-3.332 0-5.9961-2.8203-5.7578-6.1836l1.5859-22.152c0.32812-4.5742-0.51172-9.0859-2.4023-13.215l6.375 0.91016c0.12891 0.019531 0.25781 0.019531 0.39453 0l6.375-0.91016c-1.8945 4.125-2.7305 8.6406-2.4023 13.215zm23.848-42.078v21.758c0 0.69141-0.51562 1.2891-1.2031 1.3867l-3 0.42969 0.003906-25.391 3 0.42969c0.6875 0.097656 1.2031 0.69531 1.2031 1.3867zm-28.016-5.2188 21.012 3v26.188l-21.012 3-21.012-3v-26.188zm-28.016 5.2188c0-0.69141 0.51562-1.2891 1.2031-1.3867l3-0.42969v25.387l-3-0.42969c-0.6875-0.097656-1.2031-0.69531-1.2031-1.3867v-21.758zm29.004 63.82c0.57031 0.51172 0.51562 1.5117 0 1.9766-0.53516 0.55078-1.4375 0.55078-1.9766 0-0.57422-0.51562-0.51172-1.5156 0-1.9766 0.58203-0.59766 1.5273-0.49609 1.9766 0z"/>
</svg>
