<svg xmlns="http://www.w3.org/2000/svg" viewBox="0 0 100 100"><path d="M57.9873,48.418c-2.4568,2.5627-5.0804,3.9312-7.833,3.984V49.1939c1.8104-.0863,2.621-1.1771,3.5322-2.4341.6602-.9097.8418-1.6431.5537-2.2427-.5039-1.0493-2.2089-1.1304-3.7129-1.2022l-.5893-.0312c-1.5151-.0952-4.1699.1958-4.8369,1.3906a1.41606,1.41606,0,0,0,.1889,1.5972,5.93916,5.93916,0,0,0,3.8643,2.8658v3.2426c-4.5014-.3499-7.7895-3.9132-7.8232-3.9512a.50007.50007,0,0,0-.7422.6704,14.87129,14.87129,0,0,0,6.1234,3.8325l.1217,3.7178c.0004.0108.006.0197.007.0303a.49792.49792,0,0,0,.0906.3769,2.26876,2.26876,0,0,0,1.6216.9082l.0327.001a1.82982,1.82982,0,0,0,1.2343-.5143,1.75707,1.75707,0,0,0,1.2042.5143l.0303-.001a2.19771,2.19771,0,0,0,1.5849-.915.47967.47967,0,0,0,.0463-.1027.50094.50094,0,0,0,.0285-.0634c.0042-.0161.0051-.0318.0077-.0481a.4844.4844,0,0,0,.0201-.1247l-.152-3.6874A13.70509,13.70509,0,0,0,58.71,49.1104a.50043.50043,0,0,0-.7227-.6924ZM48.584,56.9658l-.0078-.001a1.1668,1.1668,0,0,1-.7448-.3967l-.1105-3.3763a10.74951,10.74951,0,0,0,1.4591.1917l.106,3.1855A1.013,1.013,0,0,1,48.584,56.9658Zm2.4521-.001-.0107.001a1.04191,1.04191,0,0,1-.7422-.4847l-.1026-3.0828a10.023,10.023,0,0,0,1.4172-.1498l.1371,3.3266A1.1135,1.1135,0,0,1,51.0361,56.9648Z"/><path d="M95.074,64.1556a2.31029,2.31029,0,0,0-.3494-1.3558,5.01921,5.01921,0,0,0-1.3636-1.3904c-3.1807-2.5566-10.0736-4.1756-14.8117-5.0323a68.29627,68.29627,0,0,0-6.4567-21.1522c.1468-.1523.2949-.3014.4387-.4632,3.9628-4.4526,5.2197-10.7759,2.8027-14.0967a4.94407,4.94407,0,0,0-3.8858-2.0625c-2.4738-.1231-5.3495,1.3163-7.706,3.846a.46216.46216,0,0,0-.043.0334l-.084.0977c-.0395.0434-.0818.0809-.1211.125a.463.463,0,0,0-.0282.0487l-.3272.3805a40.9914,40.9914,0,0,0-6.7176-1.8581c-.0717-1.131-.3706-4.4161-1.3869-4.6771-.1602-.0415-.5713-.0776-.8604.4927a6.768,6.768,0,0,1-.9873,1.4199c.1006-4.0341-.3457-4.1186-.7099-4.187-.5987-.1162-.8272.604-.958.9868a7.53906,7.53906,0,0,1-1.6841,2.8736c-.2979-3.1499-.7505-3.1846-1.0889-3.2105-.6313-.0444-.8032.7573-.9121,1.2373-.4624,2.0313-2.6934,3.9287-3.7656,4.8408l-.1479.1266a31.82368,31.82368,0,0,0-7.2105,2.1682c-.0304-.039-.0591-.0788-.0899-.1175l-.0004-.0004-.0001-.0001q-.28635-.3618-.5957-.709c-2.3701-2.6636-5.3452-4.1841-7.9179-4.0508a5.10708,5.10708,0,0,0-4.0132,2.1377c-2.4668,3.3902-1.251,9.7701,2.7104,14.2217.1614.1819.5203.5551.7951.8355a67.359,67.359,0,0,0-6.4611,20.7563.52439.52439,0,0,0-.1699-.0063c-6.0981,1.1152-16.32813,3.625-16.32813,7.913,0,5.3365,15.26823,7.9274,22.37313,8.8438a10.86624,10.86624,0,0,0-1.0695,3.5901.45857.45857,0,0,0-.016.0476c-.0728.5654-.4131,3.4375.0425,4.4189a3.44482,3.44482,0,0,0,1.1841,1.3269c-.0605,2.2395-.0437,2.2407.2226,2.2581h.022c.2295,0,.2539-.2432.2671-.375a1.98308,1.98308,0,0,1,.9901-1.4603,2.548,2.548,0,0,0,1.8009-1.0602,3.82334,3.82334,0,0,0,.2462-.3718,3.24083,3.24083,0,0,0,2.0343,1.6603l.2063,2.0045a.24971.24971,0,0,0,.248.2246l.0259-.001c.022-.0023.0341-.0217.0538-.0292a.23957.23957,0,0,0,.1899-.2023l.2035-1.9843a2.69692,2.69692,0,0,0,1.5059-1.0176,3.99891,3.99891,0,0,0,.5475-.9515l.0062.012a3.54659,3.54659,0,0,0,1.8443,1.2165,2.23584,2.23584,0,0,1,1.313,1.7396c.0141.1445.0366.3838.2671.3838h.0214c.2631-.0163.2825-.0222.2255-2.2792a3.11238,3.11238,0,0,0,1.2262-1.1417,4.532,4.532,0,0,0,.6598-2.5238c.0061-.1538.014-.3068.014-.4635a11.34279,11.34279,0,0,0-.6901-3.881c3.0299.1382,6.135.2159,9.2585.2159,2.9739,0,5.9349-.0705,8.8291-.1962a11.1463,11.1463,0,0,0-.5745,2.4309.46414.46414,0,0,0-.0158.0466c-.0723.5654-.4131,3.4375.042,4.418a3.43781,3.43781,0,0,0,1.1842,1.3278c-.0601,2.2395-.0433,2.2407.223,2.2581h.0215c.2295,0,.2539-.2432.2675-.375a1.98275,1.98275,0,0,1,.9896-1.4603,2.54779,2.54779,0,0,0,1.8015-1.0602,3.79461,3.79461,0,0,0,.2462-.3719,3.24169,3.24169,0,0,0,2.0312,1.6598l.1972,2.0051a.25066.25066,0,0,0,.249.2255l.0244-.0009c.0048-.0005.007-.0055.0117-.0063l.0098.0004a.2501.2501,0,0,0,.249-.2256l.1917-1.9859a2.69707,2.69707,0,0,0,1.5036-1.017,4.003,4.003,0,0,0,.5474-.9518l.0063.0123a3.52973,3.52973,0,0,0,2.0249,1.2586,2.2245,2.2245,0,0,1,1.2232,1.6946c.0146.1455.0381.3867.2685.3867l.0215-.001c.2641-.0163.2834-.0221.2244-2.3248a3.1753,3.1753,0,0,0,1.135-1.0951,4.53427,4.53427,0,0,0,.6597-2.5213c.0061-.1547.0141-.3085.0141-.466a10.99432,10.99432,0,0,0-1.1731-4.9699c2.3645-.2967,4.6199-.641,6.7024-1.0272,6.0088-1.1133,16.0879-3.6172,16.0879-7.8682C95.0869,64.2692,95.0776,64.213,95.074,64.1556ZM40.2823,78.5923c-.003.0824-.0023.1658-.0074.2475a.46681.46681,0,0,0,.0114.0819,3.40517,3.40517,0,0,1-.5036,1.7131,1.787,1.787,0,0,1-1.4468.9443,2.31829,2.31829,0,0,1-1.8032-.9062,10.98634,10.98634,0,0,1-.5244-3.8047.49018.49018,0,0,0-.5044-.4961.50054.50054,0,0,0-.4956.5039,22.46,22.46,0,0,0,.1517,2.3553,4.059,4.059,0,0,1-.7679,2.34,1.5055,1.5055,0,0,1-1.3203.6885,2.20243,2.20243,0,0,1-1.482-1.1719,12.2052,12.2052,0,0,1,.0425-3.8701.50015.50015,0,1,0-.9922-.127c-.0312.2426-.1094.9156-.1551,1.6761a.51023.51023,0,0,0-.0333.1325,4.08992,4.08992,0,0,1-.7735,2.3887,1.47984,1.47984,0,0,1-1.3208.6885,2.20012,2.20012,0,0,1-1.4814-1.1709,10.71334,10.71334,0,0,1-.0073-3.4405.45179.45179,0,0,0,.0136-.0488c.354-4.333,3.2295-7.5996,6.688-7.5996,2.4028,0,4.6397,1.6377,5.8384,4.2734a10.19394,10.19394,0,0,1,.878,4.0532.47989.47989,0,0,0-.0147.1304C40.2846,78.3196,40.2804,78.4539,40.2823,78.5923Zm32.1786-.5381a.48606.48606,0,0,0-.0136.1196c.0125.1466.0084.2815.0103.4206-.0031.0816-.0026.1644-.0074.2454a.47585.47585,0,0,0,.0113.081,3.39933,3.39933,0,0,1-.5035,1.714,1.78763,1.78763,0,0,1-1.4463.9443c-.0137.001-.0273.001-.04.001a2.45859,2.45859,0,0,1-1.7637-.9063,11.00784,11.00784,0,0,1-.5244-3.8056.49121.49121,0,0,0-.5039-.4961.5009.5009,0,0,0-.4961.5039,22.47925,22.47925,0,0,0,.1517,2.3558,4.06846,4.06846,0,0,1-.7679,2.3395,1.49467,1.49467,0,0,1-1.3203.6885,2.20226,2.20226,0,0,1-1.4825-1.1719,12.18127,12.18127,0,0,1,.043-3.8701.50015.50015,0,0,0-.9922-.127c-.0309.2421-.1089.9127-.1548,1.6712a.52946.52946,0,0,0-.0336.1374,4.09572,4.09572,0,0,1-.7735,2.3887,1.47961,1.47961,0,0,1-1.3213.6885,2.20125,2.20125,0,0,1-1.4814-1.1709,10.73025,10.73025,0,0,1-.0062-3.4461c.0026-.0151.0108-.0277.012-.0432.3545-4.333,3.2295-7.5996,6.6885-7.5996a6.3344,6.3344,0,0,1,5.3565,3.3555l.0011.0012A9.87782,9.87782,0,0,1,72.4609,78.0542Zm5.9572-6.7709c-2.0722.3751-4.3004.7115-6.6437.9989l-.0027.0009a7.32729,7.32729,0,0,0-6.0266-3.5663,7.54864,7.54864,0,0,0-6.6263,4.5995c-6.2016.2828-12.7683.2744-18.9486-.0208a7.5658,7.5658,0,0,0-6.5999-4.5787,7.26614,7.26614,0,0,0-6.0102,3.5157q-3.37155-.42285-6.31-.9639c-.0234-.816-.0411-1.6347-.0411-2.46,0-12.0625,2.6025-23.708,7.3281-32.79a.47989.47989,0,0,0,.0255-.0885l.0058-.0038a.5.5,0,0,0-.0039-.7071c-.2212-.2187-.8003-.8139-1.0147-1.0551-3.666-4.1202-4.8545-9.938-2.6489-12.9688a4.13838,4.13838,0,0,1,3.2534-1.727c2.2788-.1255,4.9512,1.2763,7.1221,3.7168q.28965.3255.5589.6643l.0001.0002c.1089.1382.2159.2769.3194.4175a.47966.47966,0,0,0,.0988.0831.49136.49136,0,0,0,.0645.0542.48024.48024,0,0,0,.4641.0136,29.977,29.977,0,0,1,7.4488-2.2808c.0128-.0023.0225-.0105.0349-.0137a.60742.60742,0,0,0,.1743-.0822c.0098-.0074.0215-.0102.031-.0184l.2446-.2089c1.0713-.9112,3.2178-2.7369,3.9492-4.8785.1031.6622.1958,1.5137.2505,2.2789l.0557.7841.6865-.3833a6.74378,6.74378,0,0,0,2.5142-3.2187c.0342.9165.0215,2.1704-.0274,3.291l-.0449,1.0459.8418-.6226a8.07935,8.07935,0,0,0,1.9219-2.1992,14.58843,14.58843,0,0,1,.5781,3.7168.49406.49406,0,0,0,.3464.4838.488.488,0,0,0,.2102.0978,39.99071,39.99071,0,0,1,7.1153,1.9819l.3271.124.9256-1.0758c2.1746-2.3873,4.7665-3.7579,7.0334-3.6385a3.97321,3.97321,0,0,1,3.126,1.6523c2.1553,2.9609.9258,8.7227-2.7412,12.8433-.211.2378-.4268.4653-.6446.6816-.0058.0058-.0076.0137-.0132.0198a.48644.48644,0,0,0-.0603.0898.47913.47913,0,0,0-.0414.0763.41134.41134,0,0,0-.0129.2758.48392.48392,0,0,0,.0292.101c.0036.0077.0029.0161.0069.0237,4.7744,9.1553,7.4042,21.0645,7.4042,33.5352Q78.4521,70.0983,78.4181,71.2833Z"/><path d="M41.4761,38.3374a1.84933,1.84933,0,1,0,1.8095,1.8491A1.832,1.832,0,0,0,41.4761,38.3374Zm-.3418,2.0005a.6743.6743,0,1,1,.6743-.6743A.67533.67533,0,0,1,41.1343,40.3379Z"/><path d="M58.4121,38.3374a1.84933,1.84933,0,1,0,1.8096,1.8491A1.83244,1.83244,0,0,0,58.4121,38.3374Zm-.5185,2.0005a.6743.6743,0,1,1,.6738-.6743A.67531.67531,0,0,1,57.8936,40.3379Z"/></svg>
